<svg id="Layer_1" data-name="Layer 1" xmlns="http://www.w3.org/2000/svg" viewBox="0 0 300 300"><defs><style>.cls-1{fill:#b17215;}.cls-2{fill:#985c14;}.cls-3{fill:#f5b239;}.cls-4{fill:#e09b2c;}.cls-5{fill:none;stroke:#f5b239;stroke-miterlimit:10;stroke-width:10px;}</style></defs><polygon class="cls-1" points="181.56 53.75 170.93 64.22 159.52 75.46 93.52 140.48 76.53 123.24 125.04 75.46 136.45 64.22 164.58 36.51 181.56 53.75"/><polygon class="cls-2" points="170.93 64.22 159.52 75.46 125.04 75.46 136.45 64.22 170.93 64.22"/><rect class="cls-3" x="228.01" y="63.08" width="5.18" height="73.18"/><rect class="cls-4" x="228.01" y="65.35" width="2.87" height="70.9"/><rect class="cls-1" x="44.26" y="31.18" width="211.47" height="32.83"/><rect class="cls-2" x="60.82" y="31.18" width="8.6" height="32.83"/><rect class="cls-1" x="69.24" y="14.36" width="32.83" height="271.27"/><rect class="cls-3" x="216.4" y="109.22" width="30.39" height="10.52" rx="4.42" transform="translate(-22.52 67.89) rotate(-15.91)"/><path class="cls-4" d="M226.82,121.39l-3.33,1a5.26,5.26,0,0,1-6.51-3.62,5.5,5.5,0,0,1-.2-1.44,5.27,5.27,0,0,1,3.82-5.06l13.66-3.89-10.33,2.94a5.26,5.26,0,0,0-3.82,5.06,5.69,5.69,0,0,0,.2,1.45A5.27,5.27,0,0,0,226.82,121.39Z"/><rect class="cls-3" x="216.4" y="120.06" width="30.39" height="10.52" rx="4.42" transform="translate(-25.49 68.31) rotate(-15.91)"/><path class="cls-4" d="M227.19,132.05l-3.7,1.06a5.28,5.28,0,0,1-6.51-3.62,5.55,5.55,0,0,1-.2-1.44A5.26,5.26,0,0,1,220.6,123l3.7-1.06a5.26,5.26,0,0,0,2.89,10.12Z"/><rect class="cls-3" x="216.4" y="98.94" width="30.39" height="10.52" rx="4.42" transform="translate(-19.7 67.5) rotate(-15.91)"/><path class="cls-4" d="M227.19,110.93l-3.7,1a5.27,5.27,0,0,1-6.51-3.61,5.55,5.55,0,0,1-.2-1.44,5.28,5.28,0,0,1,3.82-5.07l3.7-1a5.26,5.26,0,0,0-3.82,5,5.19,5.19,0,0,0,.21,1.45A5.26,5.26,0,0,0,227.19,110.93Z"/><path class="cls-5" d="M230.49,182.43h0c-11.73,0-20.35-12.08-17-24.13,2.33-8.31,7.87-15.4,17.45-21h0c8.05,4.67,13.47,10.47,16.4,17.33C252.88,167.66,243.81,182.43,230.49,182.43Z"/></svg>