<svg id="Layer_1" data-name="Layer 1" xmlns="http://www.w3.org/2000/svg" xmlns:xlink="http://www.w3.org/1999/xlink" viewBox="0 0 300 300"><defs><style>.cls-1,.cls-12,.cls-13{fill:none;}.cls-2{fill:#b17215;}.cls-3{fill:#985c14;}.cls-4{fill:#f5b239;}.cls-5{fill:#e09b2c;}.cls-6{fill:#167c92;}.cls-7{clip-path:url(#clip-path);}.cls-8{fill:#1d8ba6;opacity:0.8;}.cls-9{fill:#c41d20;opacity:0;}.cls-10{fill:#1e9db6;}.cls-10,.cls-12{opacity:0.5;}.cls-11{fill:#ef160c;}.cls-11,.cls-13{stroke:#3d4453;}.cls-11,.cls-12{stroke-linecap:round;stroke-linejoin:round;}.cls-12{stroke:#a30f0b;}.cls-13{stroke-miterlimit:10;}.cls-14{fill:#f6693e;}.cls-15{fill:#f3a181;}.cls-16{fill:#745239;}.cls-17{fill:#1a5b98;}.cls-18{fill:#1b96c2;}.cls-19{fill:#1e667e;}</style><clipPath id="clip-path"><path class="cls-1" d="M258.87,162.78c0,15.21-12.86,24.93-30.38,24.93-17.79,0-31.42-10.28-30.32-25.45,1.05-14.36,13.19-27,30.94-26.37C246.62,136.53,258.87,148.29,258.87,162.78Z"/></clipPath></defs><polygon class="cls-2" points="178.43 53.75 167.79 64.22 156.38 75.46 90.38 140.48 73.4 123.24 121.9 75.46 133.31 64.22 161.44 36.51 178.43 53.75"/><polygon class="cls-3" points="167.79 64.22 156.38 75.46 121.9 75.46 133.31 64.22 167.79 64.22"/><rect class="cls-4" x="224.87" y="63.08" width="5.18" height="73.18"/><rect class="cls-5" x="224.87" y="65.35" width="2.87" height="70.9"/><rect class="cls-2" x="41.13" y="31.18" width="211.47" height="32.83"/><rect class="cls-3" x="57.68" y="31.18" width="8.6" height="32.83"/><rect class="cls-2" x="66.1" y="14.36" width="32.83" height="271.27"/><rect class="cls-4" x="213.27" y="109.22" width="30.39" height="10.52" rx="4.42" transform="translate(-22.64 67.03) rotate(-15.91)"/><path class="cls-5" d="M223.68,121.39l-3.33,1a5.26,5.26,0,0,1-6.5-3.62,5.11,5.11,0,0,1-.2-1.44,5.26,5.26,0,0,1,3.82-5.06l13.65-3.89-10.32,2.94a5.26,5.26,0,1,0,2.88,10.12Z"/><rect class="cls-4" x="213.27" y="120.06" width="30.39" height="10.52" rx="4.42" transform="translate(-25.61 67.45) rotate(-15.91)"/><path class="cls-5" d="M224.06,132.05l-3.71,1.06a5.27,5.27,0,0,1-6.5-3.62,5.16,5.16,0,0,1-.2-1.44,5.25,5.25,0,0,1,3.82-5.06l3.7-1.06a5.26,5.26,0,0,0-3.82,5.06,5.63,5.63,0,0,0,.2,1.45A5.27,5.27,0,0,0,224.06,132.05Z"/><rect class="cls-4" x="213.27" y="98.94" width="30.39" height="10.52" rx="4.42" transform="matrix(0.96, -0.27, 0.27, 0.96, -19.82, 66.64)"/><path class="cls-5" d="M224.06,110.93l-3.71,1a5.26,5.26,0,0,1-6.5-3.61,5.16,5.16,0,0,1-.2-1.44,5.27,5.27,0,0,1,3.82-5.07l3.7-1a5.26,5.26,0,0,0-3.82,5,5.57,5.57,0,0,0,.2,1.45A5.28,5.28,0,0,0,224.06,110.93Z"/><path class="cls-6" d="M258.87,162.78c0,15.21-12.86,24.93-30.38,24.93-17.79,0-31.42-10.28-30.32-25.45,1.05-14.36,13.19-27,30.94-26.37C246.62,136.53,258.87,148.29,258.87,162.78Z"/><g class="cls-7"><path class="cls-8" d="M254.17,159.23c0,15.92-13.46,26.09-31.8,26.09-18.61,0-32.88-10.76-31.73-26.64,1.1-15,13.8-28.28,32.38-27.6C241.34,131.76,254.17,144.06,254.17,159.23Z"/></g><g class="cls-7"><path class="cls-9" d="M258.87,162.78c0,15.21-12.86,24.93-30.38,24.93-17.79,0-31.42-10.28-30.32-25.45,1.05-14.36,13.19-27,30.94-26.37C246.62,136.53,258.87,148.29,258.87,162.78Z"/><path class="cls-10" d="M242.38,152.24c-1,8.19-6.35,15.5-21.49,19.16-12.15,2.93-20.95-6-20.89-15.79.06-10.24,15.14-20.5,29.11-19.72C241.4,136.58,243.54,142.8,242.38,152.24Z"/></g><path class="cls-11" d="M222,174.43s-2.11,5.57,1.34,7a1.19,1.19,0,0,0,.56.07c.78-.09,2.71-.67,2.68-4.15,0,0,.16-4.26,1.34-4.57A16.6,16.6,0,0,0,222,174.43Z"/><path class="cls-12" d="M224.23,173.69a10.77,10.77,0,0,0-.26,4.86"/><path class="cls-13" d="M218.79,176.2s10.44-7.58,21.41-.53"/><path class="cls-14" d="M226.67,158.94c0,4.35-2.85,6.95-7.06,6.95s-8.53-3.53-8.53-7.88,4.24-7.87,8.45-7.87S226.67,154.59,226.67,158.94Z"/><path class="cls-15" d="M224.4,158.33a4.55,4.55,0,0,1-4.84,4.9c-2.88,0-5.84-2.49-5.84-5.55a5.87,5.87,0,0,1,5.79-5.54C222.39,152.14,224.4,155.27,224.4,158.33Z"/><circle class="cls-16" cx="216.68" cy="156.8" r="0.94"/><circle class="cls-16" cx="220" cy="156.22" r="0.94"/><circle class="cls-16" cx="220.29" cy="160.24" r="0.94"/><circle class="cls-16" cx="217.26" cy="160.35" r="0.94"/><path class="cls-17" d="M248.21,158.75c0,3.53-2.41,6.88-7,7.51-4.12.57-6.95-3.21-6.95-7.38s2.76-6.72,6.92-6.72S248.21,154.59,248.21,158.75Z"/><path class="cls-18" d="M246.58,158.87a5.78,5.78,0,0,1-5.32,5.74c-3.15.44-5.32-2.46-5.32-5.64s2.11-5.15,5.3-5.15S246.58,155.68,246.58,158.87Z"/><circle class="cls-19" cx="240.73" cy="156.45" r="0.84"/><circle class="cls-19" cx="238.8" cy="159.45" r="0.84"/><circle class="cls-19" cx="241.12" cy="160.95" r="0.84"/><circle class="cls-19" cx="243.18" cy="157.98" r="0.84"/></svg>