<svg id="Layer_1" data-name="Layer 1" xmlns="http://www.w3.org/2000/svg" xmlns:xlink="http://www.w3.org/1999/xlink" viewBox="0 0 300 300"><defs><style>.cls-1,.cls-18,.cls-19{fill:none;}.cls-2{fill:#b17215;}.cls-3{fill:#985c14;}.cls-4{fill:#f5b239;}.cls-5{fill:#e09b2c;}.cls-6{fill:#f75c10;}.cls-7{fill:#f76711;}.cls-8{fill:#f87f11;}.cls-9{fill:#167c92;}.cls-10{fill:#188aa6;}.cls-10,.cls-14{opacity:0.8;}.cls-11{fill:#189fb9;}.cls-11,.cls-16,.cls-18{opacity:0.5;}.cls-12{fill:#e71177;}.cls-13{clip-path:url(#clip-path);}.cls-14{fill:#1d8ba6;}.cls-15{fill:#c41d20;opacity:0;}.cls-16{fill:#1e9db6;}.cls-17{fill:#ef160c;}.cls-17,.cls-19{stroke:#3d4453;}.cls-17,.cls-18{stroke-linecap:round;stroke-linejoin:round;}.cls-18{stroke:#a30f0b;}.cls-19{stroke-miterlimit:10;}.cls-20{fill:#f6693e;}.cls-21{fill:#f3a181;}.cls-22{fill:#745239;}.cls-23{fill:#1a5b98;}.cls-24{fill:#1b96c2;}.cls-25{fill:#1e667e;}</style><clipPath id="clip-path"><path class="cls-1" d="M258.87,162.78c0,15.21-12.86,24.93-30.38,24.93-17.79,0-31.42-10.28-30.32-25.45,1.05-14.36,13.19-27,30.94-26.37C246.62,136.53,258.87,148.29,258.87,162.78Z"/></clipPath></defs><polygon class="cls-2" points="178.43 53.75 167.79 64.22 156.38 75.46 90.38 140.48 73.4 123.24 121.9 75.46 133.31 64.22 161.44 36.51 178.43 53.75"/><polygon class="cls-3" points="167.79 64.22 156.38 75.46 121.9 75.46 133.31 64.22 167.79 64.22"/><rect class="cls-4" x="224.87" y="63.08" width="5.18" height="73.18"/><rect class="cls-5" x="224.87" y="65.35" width="2.87" height="70.9"/><rect class="cls-2" x="41.13" y="31.18" width="211.47" height="32.83"/><rect class="cls-3" x="57.68" y="31.18" width="8.6" height="32.83"/><rect class="cls-2" x="66.1" y="14.36" width="32.83" height="271.27"/><rect class="cls-4" x="213.27" y="109.22" width="30.39" height="10.52" rx="4.42" transform="translate(-22.64 67.03) rotate(-15.91)"/><path class="cls-5" d="M223.68,121.39l-3.33,1a5.26,5.26,0,0,1-6.5-3.62,5.11,5.11,0,0,1-.2-1.44,5.26,5.26,0,0,1,3.82-5.06l13.65-3.89-10.32,2.94a5.26,5.26,0,1,0,2.88,10.12Z"/><rect class="cls-4" x="213.27" y="120.06" width="30.39" height="10.52" rx="4.42" transform="translate(-25.61 67.45) rotate(-15.91)"/><path class="cls-5" d="M224.06,132.05l-3.71,1.06a5.27,5.27,0,0,1-6.5-3.62,5.16,5.16,0,0,1-.2-1.44,5.25,5.25,0,0,1,3.82-5.06l3.7-1.06a5.26,5.26,0,0,0-3.82,5.06,5.63,5.63,0,0,0,.2,1.45A5.27,5.27,0,0,0,224.06,132.05Z"/><rect class="cls-4" x="213.27" y="98.94" width="30.39" height="10.52" rx="4.42" transform="translate(-19.82 66.64) rotate(-15.91)"/><path class="cls-5" d="M224.06,110.93l-3.71,1a5.26,5.26,0,0,1-6.5-3.61,5.16,5.16,0,0,1-.2-1.44,5.27,5.27,0,0,1,3.82-5.07l3.7-1a5.26,5.26,0,0,0-3.82,5,5.57,5.57,0,0,0,.2,1.45A5.28,5.28,0,0,0,224.06,110.93Z"/><path class="cls-6" d="M214.31,181.54h0l-.6,3.32v.07h0l-.05,0,0,0h0l-.64.4-.09.06h0l-.08,0,0,0h0l-.27.16-.27.18h0l-.19.12-.31.2a1.48,1.48,0,0,1-.13.08h0l-.33.22h0l-.29.19-.08,0-.6.4-.73.49-.08.05-.27.18-.46.31c-.25.18-.51.36-.78.53l-.68.48h0l-.15.12-.69.48-.71.51h0l-.06,0-1,.74h0l-.09.07-1,.76h0l-.43.33-1.25,1-.11.09-.18.15-.27.21h0l-.36.29-.2.16c-.18.16-.37.31-.56.46l-.51.44-.46.4c-.63.53-1.24,1.08-1.83,1.63l-.43.4c-.15.13-.3.28-.45.43s-.28.27-.42.42-.28.28-.42.41l-.82.85-.09.1-.24.26-.09.1,0,0-.12.14-.2.21c-.36.42-.71.84-1,1.26s-.64.84-.94,1.26-.37.56-.54.84-.33.55-.47.82c-1.43,2.65-1.69,5.14,0,7.15a4.75,4.75,0,0,0,.38.4l.13.13c1.09,1,8.62,7.67,15.71.66,0,0,5.13-5.14,7.13-7.75l.92-1a50.15,50.15,0,0,1,.58-6.18,46.78,46.78,0,0,1,3.28-11.28,30.87,30.87,0,0,1,1.53-3.08h0c0-.25,0-.49,0-.73h0Z"/><path class="cls-7" d="M220.61,183h0c0,.24,0,.48,0,.73h0a30.87,30.87,0,0,0-1.53,3.08,46.78,46.78,0,0,0-3.28,11.28,32.88,32.88,0,0,1-1.92,2.78c-6.66,8.8-16,13.34-22.42,11.46l-.13-.13a4.75,4.75,0,0,1-.38-.4c-1.7-2-1.44-4.5,0-7.15.14-.27.3-.54.47-.82s.35-.56.54-.84l.46-.63c.15-.21.32-.42.48-.63.33-.42.68-.84,1-1.26l.2-.21.12-.14,0,0,.09-.1.24-.26.09-.1.82-.85c.14-.13.27-.28.42-.41s.28-.29.42-.42.3-.3.45-.43l.43-.4c.9-.84,1.85-1.66,2.8-2.47.19-.15.38-.3.56-.46l.2-.16.15-.12.21-.17h0l.27-.21.18-.15.11-.09,1.25-1,.36-.27.07-.06h0l1-.76.09-.07h0l1-.74.06,0h0l.71-.51.69-.48.15-.12h0l1.92-1.32.27-.18.08-.05.73-.49.6-.4.37-.23h0l.34-.22h0a1.48,1.48,0,0,0,.13-.08l.31-.2.08,0,.11-.08h0a1,1,0,0,0,.13-.09l.14-.09.27-.16h0l.12-.07h0l.09-.06.64-.4.09,0,.05,0h0v-.06l.6-3.32h0Z"/><path class="cls-8" d="M209.35,197.91c-5.26,6.94-13.31,9.8-18.41,6.72,4.68-8.77,22.06-19.28,22.75-19.69C214,189,212.52,193.72,209.35,197.91Z"/><path class="cls-9" d="M216,185.64s-12.41,19.22-.72,44.54c1.34,2.92,5.65,7,10.06,7.72,3.88.61,8.11-.5,11.78-5.28,9.42-12.31,9.87-36,.91-47.12C238,185.5,228.88,189.17,216,185.64Z"/><path class="cls-10" d="M238.76,208.93c0,12.94-7.42,23.43-16.58,23.43a12.6,12.6,0,0,1-6.92-2.14.05.05,0,0,1,0,0c-9.25-20-3.41-36.25-.58-42.14a25.71,25.71,0,0,1,1.3-2.4c.75.21,1.49.39,2.22.55a41.56,41.56,0,0,0,10.13,1C234.43,190.6,238.76,199.05,238.76,208.93Z"/><ellipse class="cls-11" cx="222.77" cy="207.9" rx="10.38" ry="16.76"/><path class="cls-12" d="M240.1,188.65c-14.32,4.74-23,1.51-25.78.13a28.19,28.19,0,0,1,1.64-3.14c12.93,3.52,22-.14,22-.14A21.89,21.89,0,0,1,240.1,188.65Z"/><path class="cls-9" d="M258.87,162.78c0,15.21-12.86,24.93-30.38,24.93-17.79,0-31.42-10.28-30.32-25.45,1.05-14.36,13.19-27,30.94-26.37C246.62,136.53,258.87,148.29,258.87,162.78Z"/><g class="cls-13"><path class="cls-14" d="M254.17,159.23c0,15.92-13.46,26.09-31.8,26.09-18.61,0-32.88-10.76-31.73-26.64,1.1-15,13.8-28.28,32.38-27.6C241.34,131.76,254.17,144.06,254.17,159.23Z"/></g><g class="cls-13"><path class="cls-15" d="M258.87,162.78c0,15.21-12.86,24.93-30.38,24.93-17.79,0-31.42-10.28-30.32-25.45,1.05-14.36,13.19-27,30.94-26.37C246.62,136.53,258.87,148.29,258.87,162.78Z"/><path class="cls-16" d="M242.38,152.24c-1,8.19-6.35,15.5-21.49,19.16-12.15,2.93-20.95-6-20.89-15.79.06-10.24,15.14-20.5,29.11-19.72C241.4,136.58,243.54,142.8,242.38,152.24Z"/></g><path class="cls-17" d="M222,174.43s-2.11,5.57,1.34,7a1.19,1.19,0,0,0,.56.07c.78-.09,2.71-.67,2.68-4.15,0,0,.16-4.26,1.34-4.57A16.6,16.6,0,0,0,222,174.43Z"/><path class="cls-18" d="M224.23,173.69a10.77,10.77,0,0,0-.26,4.86"/><path class="cls-19" d="M218.79,176.2s10.44-7.58,21.41-.53"/><path class="cls-20" d="M226.67,158.94c0,4.35-2.85,6.95-7.06,6.95s-8.53-3.53-8.53-7.88,4.24-7.87,8.45-7.87S226.67,154.59,226.67,158.94Z"/><path class="cls-21" d="M224.4,158.33a4.55,4.55,0,0,1-4.84,4.9c-2.88,0-5.84-2.49-5.84-5.55a5.87,5.87,0,0,1,5.79-5.54C222.39,152.14,224.4,155.27,224.4,158.33Z"/><circle class="cls-22" cx="216.68" cy="156.8" r="0.94"/><circle class="cls-22" cx="220" cy="156.22" r="0.94"/><circle class="cls-22" cx="220.29" cy="160.24" r="0.94"/><circle class="cls-22" cx="217.26" cy="160.35" r="0.94"/><path class="cls-23" d="M248.21,158.75c0,3.53-2.41,6.88-7,7.51-4.12.57-6.95-3.21-6.95-7.38s2.76-6.72,6.92-6.72S248.21,154.59,248.21,158.75Z"/><path class="cls-24" d="M246.58,158.87a5.78,5.78,0,0,1-5.32,5.74c-3.15.44-5.32-2.46-5.32-5.64s2.11-5.15,5.3-5.15S246.58,155.68,246.58,158.87Z"/><circle class="cls-25" cx="240.73" cy="156.45" r="0.84"/><circle class="cls-25" cx="238.8" cy="159.45" r="0.84"/><circle class="cls-25" cx="241.12" cy="160.95" r="0.84"/><circle class="cls-25" cx="243.18" cy="157.98" r="0.84"/></svg>