<svg id="Layer_1" data-name="Layer 1" xmlns="http://www.w3.org/2000/svg" xmlns:xlink="http://www.w3.org/1999/xlink" viewBox="0 0 300 300"><defs><style>.cls-1,.cls-22,.cls-23{fill:none;}.cls-2{fill:#b17215;}.cls-3{fill:#985c14;}.cls-4{fill:#f5b239;}.cls-5{fill:#e09b2c;}.cls-6{fill:#88247f;}.cls-7{fill:#ac3491;}.cls-7,.cls-8{opacity:0.2;}.cls-8{fill:#c26cad;}.cls-9{fill:#c2351a;}.cls-10{fill:#f75c10;}.cls-11{fill:#f76711;}.cls-12{fill:#f87f11;}.cls-13{fill:#167c92;}.cls-14{fill:#188aa6;}.cls-14,.cls-18{opacity:0.8;}.cls-15{fill:#189fb9;}.cls-15,.cls-20,.cls-22{opacity:0.5;}.cls-16{fill:#e71177;}.cls-17{clip-path:url(#clip-path);}.cls-18{fill:#1d8ba6;}.cls-19{fill:#c41d20;opacity:0;}.cls-20{fill:#1e9db6;}.cls-21{fill:#ef160c;}.cls-21,.cls-23{stroke:#3d4453;}.cls-21,.cls-22{stroke-linecap:round;stroke-linejoin:round;}.cls-22{stroke:#a30f0b;}.cls-23{stroke-miterlimit:10;}.cls-24{fill:#f6693e;}.cls-25{fill:#f3a181;}.cls-26{fill:#745239;}.cls-27{fill:#1a5b98;}.cls-28{fill:#1b96c2;}.cls-29{fill:#1e667e;}</style><clipPath id="clip-path"><path class="cls-1" d="M255.73,162.78c0,15.21-12.86,24.93-30.38,24.93-17.79,0-31.42-10.28-30.32-25.45,1-14.36,13.19-27,30.94-26.37C243.48,136.53,255.73,148.29,255.73,162.78Z"/></clipPath></defs><polygon class="cls-2" points="175.28 53.75 164.65 64.22 153.24 75.46 87.24 140.48 70.26 123.24 118.76 75.46 130.17 64.22 158.3 36.51 175.28 53.75"/><polygon class="cls-3" points="164.65 64.22 153.24 75.46 118.76 75.46 130.17 64.22 164.65 64.22"/><rect class="cls-4" x="221.73" y="63.08" width="5.18" height="73.18"/><rect class="cls-5" x="221.73" y="65.35" width="2.87" height="70.9"/><rect class="cls-2" x="37.99" y="31.18" width="211.47" height="32.83"/><rect class="cls-3" x="54.54" y="31.18" width="8.6" height="32.83"/><rect class="cls-2" x="62.96" y="14.36" width="32.83" height="271.27"/><rect class="cls-4" x="210.12" y="109.22" width="30.39" height="10.52" rx="4.42" transform="translate(-22.76 66.17) rotate(-15.91)"/><path class="cls-5" d="M220.54,121.39l-3.33,1a5.27,5.27,0,0,1-6.51-3.62,5.5,5.5,0,0,1-.2-1.44,5.27,5.27,0,0,1,3.82-5.06L228,108.33l-10.33,2.94a5.26,5.26,0,0,0,2.89,10.12Z"/><rect class="cls-4" x="210.12" y="120.06" width="30.39" height="10.52" rx="4.42" transform="translate(-25.73 66.59) rotate(-15.91)"/><path class="cls-5" d="M220.91,132.05l-3.7,1.06a5.28,5.28,0,0,1-6.51-3.62,5.55,5.55,0,0,1-.2-1.44,5.26,5.26,0,0,1,3.82-5.06l3.7-1.06a5.26,5.26,0,0,0,2.89,10.12Z"/><rect class="cls-4" x="210.12" y="98.94" width="30.39" height="10.52" rx="4.42" transform="translate(-19.94 65.78) rotate(-15.91)"/><path class="cls-5" d="M220.91,110.93l-3.7,1a5.27,5.27,0,0,1-6.51-3.61,5.55,5.55,0,0,1-.2-1.44,5.28,5.28,0,0,1,3.82-5.07l3.7-1a5.26,5.26,0,0,0-3.82,5,5.19,5.19,0,0,0,.21,1.45A5.27,5.27,0,0,0,220.91,110.93Z"/><path class="cls-6" d="M231.17,183.42h0c0,.24,0,.48,0,.73h0a33.89,33.89,0,0,1,1.52,3.08A45.88,45.88,0,0,1,236,198.51a48.27,48.27,0,0,1,.58,6.18l.92,1c2,2.61,7.13,7.75,7.13,7.75,7.09,7,14.63.37,15.71-.66a1.21,1.21,0,0,0,.13-.13c.14-.13.26-.27.38-.4,1.7-2,1.44-4.5,0-7.15-.15-.27-.31-.54-.48-.82s-.35-.56-.54-.84-.6-.84-.94-1.26-.68-.84-1-1.26l-.19-.21-.13-.14,0,0-.09-.1-.23-.27-.1-.09-.81-.85-.42-.42c-.15-.14-.28-.28-.43-.41s-.29-.3-.44-.43l-.43-.4c-.6-.55-1.21-1.1-1.83-1.63l-.47-.4-.51-.44-.56-.46-.2-.16-.35-.29h0c-.09-.07-.17-.15-.26-.21l-.18-.15-.12-.09c-.42-.33-.83-.66-1.25-1l-.42-.33h0l-1-.76-.09-.07h0l-1-.74-.07-.05h0l-.71-.51-.68-.48-.16-.12h0l-.68-.48-.78-.53-.46-.31-.26-.18-.09-.06-.73-.48-.6-.4-.07,0-.3-.2h0l-.33-.22h0l-.12-.08-.32-.2-.19-.12h0a2.11,2.11,0,0,0-.27-.18l-.26-.16h0l0,0-.07-.05h0l-.08-.06-.65-.4h0l0,0,0,0h0v-.06l-.6-3.33h0Z"/><path class="cls-7" d="M231.17,183.42h0c0,.24,0,.48,0,.73h0a33.89,33.89,0,0,1,1.52,3.08A45.88,45.88,0,0,1,236,198.51c.59.93,1.23,1.86,1.92,2.78,6.67,8.8,16,13.34,22.42,11.46a1.21,1.21,0,0,0,.13-.13c.14-.13.26-.27.38-.4,1.7-2,1.44-4.5,0-7.15-.15-.27-.31-.54-.48-.82s-.35-.56-.54-.84l-.46-.63q-.22-.32-.48-.63c-.32-.42-.68-.84-1-1.26l-.19-.21-.13-.14,0,0-.09-.1-.23-.27-.1-.09-.81-.85-.42-.42c-.15-.14-.28-.28-.43-.41s-.29-.3-.44-.43l-.43-.4c-.91-.84-1.85-1.66-2.81-2.47l-.56-.46-.2-.16-.15-.12-.2-.17h0c-.09-.07-.17-.15-.26-.21l-.18-.15-.12-.09c-.42-.33-.83-.66-1.25-1a4.22,4.22,0,0,0-.36-.27l-.06-.06h0l-1-.76-.09-.07h0l-1-.74-.07-.05h0l-.71-.51-.68-.48-.16-.12h0l-1.92-1.32-.26-.18-.09-.06-.73-.48-.6-.4-.37-.24h0l-.35-.23h0l-.12-.08-.32-.2-.07,0-.12-.08h0l-.13-.09-.14-.09-.26-.16h0l-.11-.07h0l-.08-.06-.65-.4-.08,0,0,0h0l0-.06-.59-3.33h0Z"/><path class="cls-8" d="M242.44,198.36c5.26,6.94,13.3,9.8,18.41,6.72-4.69-8.77-22.07-19.28-22.76-19.69C237.79,189.4,239.26,194.17,242.44,198.36Z"/><path class="cls-9" d="M231.17,183.42c0,.24,0,.48,0,.73h0a33.89,33.89,0,0,1,1.52,3.08,24.83,24.83,0,0,0,5.37-1.91h0l-.59-3.32h0Z"/><path class="cls-10" d="M211.16,181.54h0l-.6,3.32v.07h0l-.06,0,0,0h0l-.65.4-.08.06h0l-.08,0,0,0h0l-.26.16-.27.18h0l-.19.12-.31.2a1.48,1.48,0,0,0-.13.08h0l-.33.22h0l-.3.19-.07,0-.6.4-.73.49-.08.05-.27.18-.46.31c-.26.18-.51.36-.78.53l-.68.48h0l-.16.12-.68.48-.71.51h0l-.06,0-1,.74h0l-.09.07-1,.76h0c-.13.11-.28.21-.42.33l-1.25,1-.11.09-.18.15-.27.21h0c-.12.1-.25.19-.36.29l-.2.16-.56.46-.51.44-.47.4c-.62.53-1.23,1.08-1.83,1.63l-.43.4-.44.43q-.21.19-.42.42c-.15.13-.29.28-.42.41l-.82.85-.09.1a3,3,0,0,0-.24.26l-.09.1,0,0-.13.14-.19.21c-.36.42-.72.84-1,1.26s-.65.84-.94,1.26-.37.56-.54.84-.33.55-.48.82c-1.42,2.65-1.68,5.14,0,7.15a4.75,4.75,0,0,0,.38.4,1.21,1.21,0,0,0,.13.13c1.09,1,8.62,7.67,15.71.66,0,0,5.13-5.14,7.13-7.75l.92-1a50.15,50.15,0,0,1,.58-6.18,46.78,46.78,0,0,1,3.28-11.28,33.89,33.89,0,0,1,1.52-3.08h0c0-.25,0-.49,0-.73h0Z"/><path class="cls-11" d="M217.47,183h0c0,.24,0,.48,0,.73h0a33.89,33.89,0,0,0-1.52,3.08,46.78,46.78,0,0,0-3.28,11.28,32.88,32.88,0,0,1-1.92,2.78c-6.67,8.8-16,13.34-22.42,11.46a1.21,1.21,0,0,1-.13-.13,4.75,4.75,0,0,1-.38-.4c-1.7-2-1.44-4.5,0-7.15.15-.27.31-.54.48-.82s.35-.56.54-.84l.46-.63q.22-.32.48-.63c.32-.42.68-.84,1-1.26l.19-.21.13-.14,0,0,.09-.1a3,3,0,0,1,.24-.26l.09-.1.82-.85c.13-.13.27-.28.42-.41s.28-.29.42-.42l.44-.43.43-.4c.91-.84,1.85-1.66,2.81-2.47l.56-.46.2-.16.15-.12.21-.17h0l.27-.21.18-.15.11-.09,1.25-1,.36-.27.06-.06h0l1-.76.09-.07h0l1-.74.06,0h0l.71-.51.68-.48.16-.12h0l1.92-1.32.27-.18.08-.05.73-.49.6-.4.37-.23h0l.34-.22h0a1.48,1.48,0,0,1,.13-.08l.31-.2.07,0,.12-.08h0l.13-.09.14-.09.26-.16h0l.12-.07h0l.08-.06.65-.4.08,0,.06,0h0v-.06l.59-3.32h0Z"/><path class="cls-12" d="M206.21,197.91c-5.27,6.94-13.31,9.8-18.42,6.72,4.69-8.77,22.07-19.28,22.76-19.69C210.85,189,209.38,193.72,206.21,197.91Z"/><path class="cls-13" d="M212.82,185.64s-12.41,19.22-.73,44.54c1.35,2.92,5.65,7,10.07,7.72,3.88.61,8.11-.5,11.77-5.28,9.43-12.31,9.88-36,.92-47.12C234.85,185.5,225.74,189.17,212.82,185.64Z"/><path class="cls-14" d="M235.62,208.93c0,12.94-7.42,23.43-16.58,23.43a12.66,12.66,0,0,1-6.93-2.14s0,0,0,0c-9.24-20-3.41-36.25-.57-42.14a23,23,0,0,1,1.3-2.4c.75.21,1.49.39,2.21.55a41.68,41.68,0,0,0,10.14,1C231.29,190.6,235.62,199.05,235.62,208.93Z"/><ellipse class="cls-15" cx="219.63" cy="207.9" rx="10.38" ry="16.76"/><path class="cls-16" d="M237,188.65c-14.32,4.74-23,1.51-25.78.13a28.19,28.19,0,0,1,1.64-3.14c12.92,3.52,22-.14,22-.14A21.89,21.89,0,0,1,237,188.65Z"/><path class="cls-13" d="M255.73,162.78c0,15.21-12.86,24.93-30.38,24.93-17.79,0-31.42-10.28-30.32-25.45,1-14.36,13.19-27,30.94-26.37C243.48,136.53,255.73,148.29,255.73,162.78Z"/><g class="cls-17"><path class="cls-18" d="M251,159.23c0,15.92-13.46,26.09-31.8,26.09-18.61,0-32.88-10.76-31.73-26.64,1.09-15,13.8-28.28,32.38-27.6C238.2,131.76,251,144.06,251,159.23Z"/></g><g class="cls-17"><path class="cls-19" d="M255.73,162.78c0,15.21-12.86,24.93-30.38,24.93-17.79,0-31.42-10.28-30.32-25.45,1-14.36,13.19-27,30.94-26.37C243.48,136.53,255.73,148.29,255.73,162.78Z"/><path class="cls-20" d="M239.24,152.24c-1,8.19-6.35,15.5-21.5,19.16-12.14,2.93-20.94-6-20.88-15.79.06-10.24,15.14-20.5,29.11-19.72C238.26,136.58,240.4,142.8,239.24,152.24Z"/></g><path class="cls-21" d="M218.9,174.43s-2.11,5.57,1.34,7a1.17,1.17,0,0,0,.56.07c.78-.09,2.7-.67,2.68-4.15,0,0,.15-4.26,1.34-4.57A16.6,16.6,0,0,0,218.9,174.43Z"/><path class="cls-22" d="M221.09,173.69a10.84,10.84,0,0,0-.27,4.86"/><path class="cls-23" d="M215.65,176.2s10.44-7.58,21.4-.53"/><path class="cls-24" d="M223.52,158.94c0,4.35-2.84,6.95-7.05,6.95s-8.53-3.53-8.53-7.88,4.24-7.87,8.44-7.87S223.52,154.59,223.52,158.94Z"/><path class="cls-25" d="M221.26,158.33a4.55,4.55,0,0,1-4.84,4.9c-2.88,0-5.84-2.49-5.84-5.55a5.87,5.87,0,0,1,5.78-5.54C219.25,152.14,221.26,155.27,221.26,158.33Z"/><circle class="cls-26" cx="213.54" cy="156.8" r="0.94"/><circle class="cls-26" cx="216.86" cy="156.22" r="0.94"/><circle class="cls-26" cx="217.14" cy="160.24" r="0.94"/><circle class="cls-26" cx="214.12" cy="160.35" r="0.94"/><path class="cls-27" d="M245.07,158.75c0,3.53-2.41,6.88-6.95,7.51-4.12.57-7-3.21-7-7.38s2.76-6.72,6.92-6.72S245.07,154.59,245.07,158.75Z"/><path class="cls-28" d="M243.44,158.87a5.78,5.78,0,0,1-5.32,5.74c-3.15.44-5.32-2.46-5.32-5.64s2.11-5.15,5.3-5.15S243.44,155.68,243.44,158.87Z"/><circle class="cls-29" cx="237.59" cy="156.45" r="0.84"/><circle class="cls-29" cx="235.66" cy="159.45" r="0.84"/><circle class="cls-29" cx="237.98" cy="160.95" r="0.84"/><circle class="cls-29" cx="240.03" cy="157.98" r="0.84"/></svg>